#!OML:ASF H:\LiuWeirdWalks\Patient Classification 1\Patient 1\Session 1\male.ASF
:FULLY-SPECIFIED
:DEGREES
463
root 0.971301 16.1066 22.8778 0.664936 19.3718 -8.26556
lowerback 5.31973 5.49403 3.62753
upperback -3.54108 7.49545 -2.87675
thorax -5.8203 3.50184 -5.75349
lowerneck -5.19838 -1.64725 3.31615
upperneck 2.83869 -2.34931 -1.9217
head 1.71307 -1.17919 -1.24189
rclavicle 4.24902e-014 -4.77083e-015
rhumerus -20.5971 -7.03268 -70.566
rradius 43.1951
rwrist -17.6799
rhand -25.8009 -2.45644
rfingers 7.12502
rthumb 0.738071 -32.4349
lclavicle 4.24902e-014 -4.77083e-015
lhumerus -60.7967 20.1855 35.5824
lradius 64.085
lwrist 22.6185
lhand -27.9946 -1.52402
lfingers 7.12502
lthumb -1.38069 28.4513
rfemur 27.3525 -2.336 31.4423
rtibia 14.5706
rfoot -14.2456 -21.2261
rtoes -23.7276
lfemur -50.4844 -6.29008 -11.5586
ltibia 40.1997
lfoot 5.96363 -3.69578
ltoes -3.9182
464
root 1.01509 16.0762 23.104 0.685962 19.4783 -7.37244
lowerback 5.81988 5.28618 2.72256
upperback -3.55107 7.13373 -3.17867
thorax -6.22807 3.33723 -5.60615
lowerneck -5.34051 -1.71918 3.21721
upperneck 2.6661 -2.45357 -1.66444
head 1.68234 -1.2278 -1.14552
rclavicle 8.37629e-014 -3.18055e-015
rhumerus -21.5699 -6.7315 -71.6839
rradius 44.7835
rwrist -19.1992
rhand -26.4301 -1.99966
rfingers 7.12502
rthumb 0.130367 -31.9794
lclavicle 8.37629e-014 -3.18055e-015
lhumerus -61.6539 21.7246 34.4166
lradius 62.152
lwrist 22.1417
lhand -28.6719 -1.06531
lfingers 7.12502
lthumb -2.03482 28.9047
rfemur 26.7822 -2.42827 30.631
rtibia 17.7437
rfoot -13.8768 -21.1134
rtoes -24.2197
lfemur -50.6738 -6.26513 -12.7804
ltibia 41.4936
lfoot 6.6866 -4.24573
ltoes -4.52008
465
root 1.06111 16.0557 23.3259 0.577637 19.5795 -6.92226
lowerback 6.28309 5.07595 2.29325
upperback -3.54021 6.80787 -3.36106
thorax -6.5444 3.17821 -5.58575
lowerneck -5.53295 -1.80909 3.06862
upperneck 2.48598 -2.5789 -1.40698
head 1.65859 -1.28751 -1.04232
rclavicle -9.3727e-014 4.77083e-015
rhumerus -22.6038 -6.31995 -72.8157
rradius 46.2961
rwrist -20.4819
rhand -26.8393 -1.3453
rfingers 7.12502
rthumb -0.264833 -31.3249
lclavicle -9.3727e-014 4.77083e-015
lhumerus -62.3412 23.077 33.5271
lradius 60.0363
lwrist 21.891
lhand -29.369 -0.659182
lfingers 7.12502
lthumb -2.70804 29.3034
rfemur 26.0148 -2.63404 30.1714
rtibia 21.0645
rfoot -12.9685 -20.7041
rtoes -24.5493
lfemur -50.8176 -6.19408 -13.5037
ltibia 43.0158
lfoot 5.92902 -4.29142
ltoes -6.99676
466
root 1.11032 16.0442 23.5427 0.327502 19.5769 -6.96071
lowerback 6.68556 4.88748 2.37538
upperback -3.51179 6.56434 -3.40398
thorax -6.75716 3.0447 -5.69617
lowerneck -5.78593 -1.88438 2.96836
upperneck 2.31488 -2.6863 -1.22035
head 1.64843 -1.33929 -0.970977
rclavicle 4.13721e-014 9.54166e-015
rhumerus -23.6712 -5.79382 -73.9454
rradius 47.672
rwrist -21.4501
rhand -27.0011 -0.501881
rfingers 7.12502
rthumb -0.421109 -30.4812
lclavicle 4.13721e-014 9.54166e-015
lhumerus -62.8042 24.201 33.0063
lradius 57.7268
lwrist 21.9707
lhand -30.1392 -0.338278
lfingers 7.12502
lthumb -3.45191 29.6135
rfemur 25.0591 -2.90034 30.0884
rtibia 24.481
rfoot -11.4767 -20.0351
rtoes -24.7411
lfemur -50.7902 -6.05162 -13.6395
ltibia 44.7154
lfoot 4.48993 -3.97499
ltoes -9.39554
467
root 1.16391 16.0458 23.755 0.00420541 19.4075 -7.31547
lowerback 7.00361 4.74709 2.80036
upperback -3.46157 6.42676 -3.33588
thorax -6.8638 2.95451 -5.87699
lowerneck -6.12008 -1.96249 2.79592
upperneck 2.23847 -2.79454 -1.00884
head 1.68481 -1.39076 -0.882468
rclavicle -6.05299e-014 -3.18055e-014
rhumerus -24.7334 -5.16722 -75.0323
rradius 48.844
rwrist -21.9892
rhand -26.8819 0.472301
rfingers 7.12502
rthumb -0.30602 -29.5072
lclavicle -6.05299e-014 -3.18055e-014
lhumerus -63.0054 25.1239 32.9353
lradius 55.2466
lwrist 22.5321
lhand -31.0194 -0.120227
lfingers 7.12502
lthumb -4.30188 29.8161
rfemur 23.9336 -3.19205 30.183
rtibia 27.91
rfoot -9.36339 -19.1308
rtoes -24.6809
lfemur -50.6315 -5.85167 -13.3434
ltibia 46.4207
lfoot 2.86943 -3.51435
ltoes -10.827
468
root 1.22197 16.0649 23.9638 -0.293831 19.0437 -7.75124
lowerback 7.21872 4.65384 3.31861
upperback -3.39669 6.36629 -3.21466
thorax -6.88439 2.90298 -6.04859
lowerneck -6.49539 -2.01148 2.63536
upperneck 2.17811 -2.86352 -0.832613
head 1.73463 -1.42291 -0.807179
rclavicle 8.38126e-014 1.59028e-014
rhumerus -25.7361 -4.41765 -76.1134
rradius 49.7377
rwrist -22.0948
rhand -26.5093 1.59845
rfingers 7.12502
rthumb 0.0538674 -28.3813
lclavicle 8.38126e-014 1.59028e-014
lhumerus -62.9724 25.8403 33.3039
lradius 52.6569
lwrist 23.6044
lhand -31.7218 0.0491698
lfingers 7.12502
lthumb -4.98009 29.9706
rfemur 22.647 -3.47319 30.2206
rtibia 31.2728
rfoot -6.6452 -18.0867
rtoes -24.299
lfemur -50.355 -5.63391 -12.8626
ltibia 47.9347
lfoot 1.44155 -3.04687
ltoes -11.5523
469
root 1.28312 16.1027 24.1704 -0.527474 18.467 -8.13502
lowerback 7.3251 4.60553 3.76541
upperback -3.32452 6.35925 -3.06846
thorax -6.8391 2.88495 -6.14725
lowerneck -6.83205 -2.01466 2.54986
upperneck 2.08977 -2.87255 -0.733077
head 1.76816 -1.42628 -0.766044
rclavicle -5.37464e-014 1.59028e-015
rhumerus -26.6561 -3.54732 -77.2202
rradius 50.3079
rwrist -21.7536
rhand -25.8971 2.85609
rfingers 7.12502
rthumb 0.645095 -27.1227
lclavicle -5.37464e-014 1.59028e-015
lhumerus -62.7759 26.3469 34.0681
lradius 50.0655
lwrist 25.1313
lhand -32.0897 0.241899
lfingers 7.12502
lthumb -5.33538 30.1547
rfemur 21.2391 -3.68089 30.1076
rtibia 34.4852
rfoot -3.40339 -17.0103
rtoes -23.3679
lfemur -49.8637 -5.3663 -12.3607
ltibia 49.1066
lfoot 0.282861 -2.53354
ltoes -11.7358
470
root 1.34694 16.1589 24.3764 -0.634632 17.7098 -8.31464
lowerback 7.28698 4.5924 3.97673
upperback -3.24509 6.36982 -2.93443
thorax -6.72392 2.88984 -6.11353
lowerneck -7.1178 -1.97997 2.51416
upperneck 1.99808 -2.83152 -0.68849
head 1.79122 -1.40555 -0.748099
rclavicle 3.76945e-014 -1.74931e-014
rhumerus -27.4624 -2.59909 -78.354
rradius 50.5099
rwrist -20.8371
rhand -25.0429 4.24066
rfingers 7.12502
rthumb 1.47013 -25.734
lclavicle 3.76945e-014 -1.74931e-014
lhumerus -62.4674 26.6609 35.2011
lradius 47.5924
lwrist 27.0023
lhand -32.0567 0.61287
lfingers 7.12502
lthumb -5.30347 30.5265
rfemur 19.7326 -3.81738 29.7055
rtibia 37.4965
rfoot 0.203038 -15.9939
rtoes -21.6838
lfemur -49.1307 -5.06567 -12.0271
ltibia 49.8851
lfoot -0.658472 -1.94024
ltoes -11.5774
471
root 1.41034 16.2318 24.5817 -0.637803 16.811 -8.31469
lowerback 7.12635 4.59701 3.93452
upperback -3.16675 6.37369 -2.79754
thorax -6.5671 2.90481 -5.92238
lowerneck -7.33843 -1.90881 2.52375
upperneck 1.9124 -2.74241 -0.691689
head 1.80434 -1.36164 -0.750176
rclavicle -2.56681e-014 2.38542e-014
rhumerus -28.1413 -1.59614 -79.5094
rradius 50.3291
rwrist -19.3035
rhand -23.9994 5.72348
rfingers 7.12502
rthumb 2.4779 -24.2419
lclavicle -2.56681e-014 2.38542e-014
lhumerus -62.1355 26.8447 36.6028
lradius 45.3322
lwrist 28.9027
lhand -31.4941 1.18871
lfingers 7.12502
lthumb -4.76024 31.1152
rfemur 18.1475 -3.87822 29.0849
rtibia 40.2938
rfoot 4.06121 -15.099
rtoes -19.1328
lfemur -48.1846 -4.74782 -11.8433
ltibia 50.2997
lfoot -1.45428 -1.20997
ltoes -11.4508
472
root 1.47119 16.315 24.7852 -0.588342 15.8276 -8.18863
lowerback 6.89012 4.60657 3.68679
upperback -3.08628 6.36226 -2.64489
thorax -6.38991 2.92191 -5.59169
lowerneck -7.58561 -1.80565 2.55785
upperneck 1.93191 -2.61355 -0.715742
head 1.85694 -1.29755 -0.763227
rclavicle -1.00486e-013 1.74931e-014
rhumerus -28.7096 -0.607373 -80.6556
rradius 49.807
rwrist -17.1152
rhand -22.862 7.27391
rfingers 7.12502
rthumb 3.57632 -22.6758
lclavicle -1.00486e-013 1.74931e-014
lhumerus -61.7966 26.9138 38.2535
lradius 43.3736
lwrist 30.6137
lhand -30.5382 1.9329
lfingers 7.12502
lthumb -3.83722 31.8781
rfemur 16.5562 -3.89082 28.3335
rtibia 42.8365
rfoot 8.1386 -14.3713
rtoes -15.6997
lfemur -47.0483 -4.42502 -11.7721
ltibia 50.3542
lfoot -2.0872 -0.376314
ltoes -11.5093
473
root 1.52958 16.4042 24.9851 -0.492867 14.8538 -7.93499
lowerback 6.60051 4.58977 3.24654
upperback -3.00699 6.29778 -2.47843
thorax -6.21103 2.9202 -5.13084
lowerneck -7.83819 -1.69694 2.52768
upperneck 2.06795 -2.47515 -0.667208
head 1.95057 -1.22648 -0.743075
rclavicle 1.74185e-014 -4.77083e-015
rhumerus -29.1911 0.325573 -81.7612
rradius 49.001
rwrist -14.2297
rhand -21.7448 8.81567
rfingers 7.12502
rthumb 4.65523 -21.1132
lclavicle 1.74185e-014 -4.77083e-015
lhumerus -61.5018 26.9738 40.0398
lradius 41.733
lwrist 31.8703
lhand -29.3318 2.64594
lfingers 7.12502
lthumb -2.67212 32.6089
rfemur 14.9346 -3.94011 27.4457
rtibia 45.2539
rfoot 12.2844 -13.8798
rtoes -11.7526
lfemur -45.8032 -4.14504 -11.8432
ltibia 50.1666
lfoot -2.61349 0.514503
ltoes -11.6735
474
root 1.5844 16.5165 25.1837 -0.410977 13.937 -7.64331
lowerback 6.32789 4.53512 2.70936
upperback -2.93175 6.17852 -2.28497
thorax -6.0636 2.89323 -4.58729
lowerneck -8.19651 -1.57084 2.46614
upperneck 2.36873 -2.31709 -0.553887
head 2.11952 -1.14269 -0.698998
rclavicle -2.91965e-015 -2.8625e-014
rhumerus -29.6233 1.14074 -82.7996
rradius 47.9812
rwrist -10.6764
rhand -20.7535 10.3056
rfingers 7.12502
rthumb 5.61236 -19.6001
lclavicle -2.91965e-015 -2.8625e-014
lhumerus -61.2339 27.0016 41.9569
lradius 40.4472
lwrist 32.6111
lhand -28.0269 3.19494
lfingers 7.12502
lthumb -1.41191 33.17
rfemur 13.3344 -4.06637 26.5417
rtibia 47.5313
rfoot 16.2711 -13.7493
rtoes -8.33996
lfemur -44.3727 -3.90043 -11.9777
ltibia 49.7268
lfoot -3.09887 1.3675
ltoes -11.8996
